<?xml version="1.0" encoding="UTF-8" standalone="no"?>
<!DOCTYPE svg PUBLIC "-//W3C//DTD SVG 1.1//EN"
 "http://www.w3.org/Graphics/SVG/1.1/DTD/svg11.dtd">
<!-- Generated by graphviz version 6.0.1 (20220911.1526)
 -->
<!-- Title: G Pages: 1 -->
<svg width="776pt" height="558pt"
 viewBox="0.00 0.00 776.06 558.00" xmlns="http://www.w3.org/2000/svg" xmlns:xlink="http://www.w3.org/1999/xlink">
<g id="graph0" class="graph" transform="scale(1 1) rotate(0) translate(4 554)">
<title>G</title>
<polygon fill="white" stroke="none" points="-4,4 -4,-554 772.06,-554 772.06,4 -4,4"/>
<text text-anchor="middle" x="384.03" y="-534.8" font-family="Times,serif" font-size="14.00">Grant&#39;s Village Store EPOS System</text>
<g id="clust1" class="cluster">
<title>cluster_Backoffice</title>
<polygon fill="none" stroke="black" points="437.48,-336 437.48,-519 760.06,-519 760.06,-336 437.48,-336"/>
<text text-anchor="middle" x="598.77" y="-503.8" font-family="Times,serif" font-size="14.00">Backoffice server</text>
</g>
<g id="clust2" class="cluster">
<title>cluster_POS</title>
<polygon fill="none" stroke="black" points="474.27,-145 474.27,-328 575.27,-328 575.27,-145 474.27,-145"/>
<text text-anchor="middle" x="524.77" y="-312.8" font-family="Times,serif" font-size="14.00">POS Terminals</text>
</g>
<g id="clust3" class="cluster">
<title>cluster_WS</title>
<polygon fill="none" stroke="black" points="8,-389 8,-518 275.73,-518 275.73,-389 8,-389"/>
<text text-anchor="middle" x="141.87" y="-502.8" font-family="Times,serif" font-size="14.00">Weigh scale network</text>
</g>
<g id="clust4" class="cluster">
<title>cluster_workstation</title>
<polygon fill="none" stroke="black" points="432.28,-8 432.28,-137 617.26,-137 617.26,-8 432.28,-8"/>
<text text-anchor="middle" x="524.77" y="-121.8" font-family="Times,serif" font-size="14.00">Office PC</text>
</g>
<!-- DB -->
<g id="node1" class="node">
<title>DB</title>
<ellipse fill="none" stroke="black" cx="709.16" cy="-362" rx="42.79" ry="18"/>
<text text-anchor="middle" x="709.16" y="-358.3" font-family="Times,serif" font-size="14.00">Database</text>
</g>
<!-- WSI -->
<g id="node2" class="node">
<title>WSI</title>
<ellipse fill="#ffaeb9" stroke="black" cx="524.77" cy="-470" rx="53.89" ry="18"/>
<text text-anchor="middle" x="524.77" y="-466.3" font-family="Times,serif" font-size="14.00">Online shop</text>
</g>
<!-- WSI&#45;&gt;DB -->
<g id="edge1" class="edge">
<title>WSI&#45;&gt;DB</title>
<path fill="none" stroke="black" d="M571.56,-460.73C586.69,-456.57 603.22,-450.81 617.26,-443 643.7,-428.3 668.98,-404.73 686.14,-386.8"/>
<polygon fill="black" stroke="black" points="689.15,-388.7 693.42,-379 684.04,-383.92 689.15,-388.7"/>
<text text-anchor="middle" x="637.76" y="-439.8" font-family="Times,serif" font-size="14.00">x10</text>
</g>
<!-- WSBO -->
<g id="node3" class="node">
<title>WSBO</title>
<ellipse fill="none" stroke="black" cx="524.77" cy="-416" rx="55.49" ry="18"/>
<text text-anchor="middle" x="524.77" y="-412.3" font-family="Times,serif" font-size="14.00">Scale Server</text>
</g>
<!-- WSBO&#45;&gt;DB -->
<g id="edge6" class="edge">
<title>WSBO&#45;&gt;DB</title>
<path fill="none" stroke="black" d="M567.25,-404.47C591.01,-397.78 621.37,-389.11 648.26,-381 653.62,-379.39 659.23,-377.66 664.78,-375.92"/>
<polygon fill="black" stroke="black" points="666.15,-379.16 674.63,-372.82 664.04,-372.49 666.15,-379.16"/>
<text text-anchor="middle" x="637.76" y="-389.8" font-family="Times,serif" font-size="14.00">x1</text>
</g>
<!-- PCS -->
<g id="node4" class="node">
<title>PCS</title>
<ellipse fill="none" stroke="black" cx="524.77" cy="-362" rx="79.09" ry="18"/>
<text text-anchor="middle" x="524.77" y="-358.3" font-family="Times,serif" font-size="14.00">Price&#45;Check Server</text>
</g>
<!-- PCS&#45;&gt;DB -->
<g id="edge5" class="edge">
<title>PCS&#45;&gt;DB</title>
<path fill="none" stroke="black" d="M604.18,-362C621.68,-362 639.83,-362 655.96,-362"/>
<polygon fill="black" stroke="black" points="656.25,-365.5 666.25,-362 656.25,-358.5 656.25,-365.5"/>
<text text-anchor="middle" x="637.76" y="-365.8" font-family="Times,serif" font-size="14.00">x1</text>
</g>
<!-- REG1 -->
<g id="node5" class="node">
<title>REG1</title>
<ellipse fill="#98f5ff" stroke="black" cx="524.77" cy="-279" rx="32.49" ry="18"/>
<text text-anchor="middle" x="524.77" y="-275.3" font-family="Times,serif" font-size="14.00">REG1</text>
</g>
<!-- REG1&#45;&gt;DB -->
<g id="edge2" class="edge">
<title>REG1&#45;&gt;DB</title>
<path fill="none" stroke="black" d="M550.37,-290.19C581.16,-304.21 634.23,-328.36 670.24,-344.74"/>
<polygon fill="black" stroke="black" points="668.91,-347.98 679.46,-348.94 671.8,-341.61 668.91,-347.98"/>
<text text-anchor="middle" x="637.76" y="-335.8" font-family="Times,serif" font-size="14.00">x1</text>
</g>
<!-- REG2 -->
<g id="node6" class="node">
<title>REG2</title>
<ellipse fill="#98f5ff" stroke="black" cx="524.77" cy="-225" rx="32.49" ry="18"/>
<text text-anchor="middle" x="524.77" y="-221.3" font-family="Times,serif" font-size="14.00">REG2</text>
</g>
<!-- REG2&#45;&gt;DB -->
<g id="edge3" class="edge">
<title>REG2&#45;&gt;DB</title>
<path fill="none" stroke="black" d="M556.53,-229.39C575.27,-233.15 599.02,-239.95 617.26,-252 650.04,-273.64 677.08,-310.66 692.92,-335.72"/>
<polygon fill="black" stroke="black" points="690.01,-337.67 698.24,-344.35 695.97,-334 690.01,-337.67"/>
<text text-anchor="middle" x="637.76" y="-279.8" font-family="Times,serif" font-size="14.00">x1</text>
</g>
<!-- REG3 -->
<g id="node7" class="node">
<title>REG3</title>
<ellipse fill="#98f5ff" stroke="black" cx="524.77" cy="-171" rx="32.49" ry="18"/>
<text text-anchor="middle" x="524.77" y="-167.3" font-family="Times,serif" font-size="14.00">REG3</text>
</g>
<!-- REG3&#45;&gt;DB -->
<g id="edge4" class="edge">
<title>REG3&#45;&gt;DB</title>
<path fill="none" stroke="black" d="M556.87,-174.9C575.73,-178.48 599.5,-185.26 617.26,-198 664.06,-231.55 689.58,-297.02 700.89,-334.3"/>
<polygon fill="black" stroke="black" points="697.56,-335.38 703.71,-344.01 704.28,-333.43 697.56,-335.38"/>
<text text-anchor="middle" x="637.76" y="-228.8" font-family="Times,serif" font-size="14.00">x1</text>
</g>
<!-- MW1 -->
<g id="node8" class="node">
<title>MW1</title>
<ellipse fill="none" stroke="black" cx="235.24" cy="-416" rx="32.49" ry="18"/>
<text text-anchor="middle" x="235.24" y="-412.3" font-family="Times,serif" font-size="14.00">MW1</text>
</g>
<!-- MW1&#45;&gt;WSBO -->
<g id="edge7" class="edge">
<title>MW1&#45;&gt;WSBO</title>
<path fill="none" stroke="black" d="M267.83,-416C313.69,-416 399.7,-416 459.28,-416"/>
<polygon fill="black" stroke="black" points="459.34,-419.5 469.34,-416 459.34,-412.5 459.34,-419.5"/>
<text text-anchor="middle" x="382.28" y="-419.8" font-family="Times,serif" font-size="14.00">RS232&#45;COM1</text>
</g>
<!-- SW1 -->
<g id="node9" class="node">
<title>SW1</title>
<ellipse fill="none" stroke="black" cx="44.6" cy="-469" rx="28.7" ry="18"/>
<text text-anchor="middle" x="44.6" y="-465.3" font-family="Times,serif" font-size="14.00">SW1</text>
</g>
<!-- SW1&#45;&gt;MW1 -->
<g id="edge8" class="edge">
<title>SW1&#45;&gt;MW1</title>
<path fill="none" stroke="black" d="M71.04,-461.85C103.12,-452.84 158.58,-437.26 195.83,-426.79"/>
<polygon fill="black" stroke="black" points="197.14,-430.06 205.82,-423.98 195.24,-423.32 197.14,-430.06"/>
<text text-anchor="middle" x="109.69" y="-457.8" font-family="Times,serif" font-size="14.00">RS485</text>
</g>
<!-- SW2 -->
<g id="node10" class="node">
<title>SW2</title>
<ellipse fill="none" stroke="black" cx="44.6" cy="-415" rx="28.7" ry="18"/>
<text text-anchor="middle" x="44.6" y="-411.3" font-family="Times,serif" font-size="14.00">SW2</text>
</g>
<!-- SW2&#45;&gt;MW1 -->
<g id="edge9" class="edge">
<title>SW2&#45;&gt;MW1</title>
<path fill="none" stroke="black" d="M73.43,-415.15C104.77,-415.31 156.04,-415.59 192.25,-415.78"/>
<polygon fill="black" stroke="black" points="192.49,-419.28 202.5,-415.83 192.52,-412.28 192.49,-419.28"/>
<text text-anchor="middle" x="109.69" y="-418.8" font-family="Times,serif" font-size="14.00">RS485</text>
</g>
<!-- PCT1 -->
<g id="node11" class="node">
<title>PCT1</title>
<ellipse fill="none" stroke="black" cx="235.24" cy="-362" rx="89.08" ry="18"/>
<text text-anchor="middle" x="235.24" y="-358.3" font-family="Times,serif" font-size="14.00">Price&#45;Check Terminal</text>
</g>
<!-- PCT1&#45;&gt;PCS -->
<g id="edge10" class="edge">
<title>PCT1&#45;&gt;PCS</title>
<path fill="none" stroke="black" d="M324.46,-362C359.62,-362 400.02,-362 435.21,-362"/>
<polygon fill="black" stroke="black" points="435.47,-365.5 445.47,-362 435.47,-358.5 435.47,-365.5"/>
<text text-anchor="middle" x="382.28" y="-365.8" font-family="Times,serif" font-size="14.00">Telnet</text>
</g>
<!-- BOSS -->
<g id="node12" class="node">
<title>BOSS</title>
<ellipse fill="#c1ffc1" stroke="black" cx="524.77" cy="-88" rx="84.49" ry="18"/>
<text text-anchor="middle" x="524.77" y="-84.3" font-family="Times,serif" font-size="14.00">Back&#45;office software</text>
</g>
<!-- BOSS&#45;&gt;DB -->
<g id="edge11" class="edge">
<title>BOSS&#45;&gt;DB</title>
<path fill="none" stroke="black" d="M562.24,-104.18C580.14,-113.29 601.24,-125.88 617.26,-141 673.67,-194.23 696.17,-287.56 704.2,-334.05"/>
<polygon fill="black" stroke="black" points="700.76,-334.71 705.82,-344.02 707.67,-333.58 700.76,-334.71"/>
<text text-anchor="middle" x="637.76" y="-178.8" font-family="Times,serif" font-size="14.00">x1</text>
</g>
<!-- psql -->
<g id="node13" class="node">
<title>psql</title>
<ellipse fill="#e0eeee" stroke="black" cx="524.77" cy="-34" rx="27" ry="18"/>
<text text-anchor="middle" x="524.77" y="-30.3" font-family="Times,serif" font-size="14.00">psql</text>
</g>
<!-- psql&#45;&gt;DB -->
<g id="edge12" class="edge">
<title>psql&#45;&gt;DB</title>
<path fill="none" stroke="black" d="M551.96,-35.73C572.03,-38.35 599.25,-44.87 617.26,-61 697.64,-133.01 708.08,-273.31 708.67,-333.48"/>
<polygon fill="black" stroke="black" points="705.17,-333.75 708.68,-343.75 712.17,-333.74 705.17,-333.75"/>
<text text-anchor="middle" x="637.76" y="-95.8" font-family="Times,serif" font-size="14.00">x1</text>
</g>
</g>
</svg>
