<?xml version="1.0" encoding="UTF-8" standalone="no"?>
<!DOCTYPE svg PUBLIC "-//W3C//DTD SVG 1.1//EN"
 "http://www.w3.org/Graphics/SVG/1.1/DTD/svg11.dtd">
<!-- Generated by graphviz version 6.0.1 (20220911.1526)
 -->
<!-- Title: G Pages: 1 -->
<svg width="529pt" height="98pt"
 viewBox="0.00 0.00 529.36 98.00" xmlns="http://www.w3.org/2000/svg" xmlns:xlink="http://www.w3.org/1999/xlink">
<g id="graph0" class="graph" transform="scale(1 1) rotate(0) translate(4 94)">
<title>G</title>
<polygon fill="white" stroke="none" points="-4,4 -4,-94 525.36,-94 525.36,4 -4,4"/>
<!-- ACT -->
<g id="node1" class="node">
<title>ACT</title>
<ellipse fill="none" stroke="black" cx="34.45" cy="-41" rx="34.39" ry="18"/>
<text text-anchor="middle" x="34.45" y="-37.3" font-family="Times,serif" font-size="14.00">Active</text>
</g>
<!-- PC -->
<g id="node2" class="node">
<title>PC</title>
<ellipse fill="none" stroke="black" cx="186.14" cy="-64" rx="81.49" ry="18"/>
<text text-anchor="middle" x="186.14" y="-60.3" font-family="Times,serif" font-size="14.00">Partially committed</text>
</g>
<!-- ACT&#45;&gt;PC -->
<g id="edge1" class="edge">
<title>ACT&#45;&gt;PC</title>
<path fill="none" stroke="black" d="M67.93,-45.99C80.08,-47.86 94.46,-50.07 108.91,-52.29"/>
<polygon fill="black" stroke="black" points="108.48,-55.76 118.9,-53.82 109.55,-48.84 108.48,-55.76"/>
</g>
<!-- F -->
<g id="node4" class="node">
<title>F</title>
<ellipse fill="none" stroke="black" cx="354.72" cy="-18" rx="32.49" ry="18"/>
<text text-anchor="middle" x="354.72" y="-14.3" font-family="Times,serif" font-size="14.00">Failed</text>
</g>
<!-- ACT&#45;&gt;F -->
<g id="edge2" class="edge">
<title>ACT&#45;&gt;F</title>
<path fill="none" stroke="black" d="M68.61,-38.6C126.98,-34.39 247.93,-25.65 311.92,-21.02"/>
<polygon fill="black" stroke="black" points="312.34,-24.5 322.06,-20.29 311.83,-17.52 312.34,-24.5"/>
</g>
<!-- C -->
<g id="node3" class="node">
<title>C</title>
<ellipse fill="none" stroke="black" cx="354.72" cy="-72" rx="51.19" ry="18"/>
<text text-anchor="middle" x="354.72" y="-68.3" font-family="Times,serif" font-size="14.00">Committed</text>
</g>
<!-- PC&#45;&gt;C -->
<g id="edge3" class="edge">
<title>PC&#45;&gt;C</title>
<path fill="none" stroke="black" d="M266.04,-67.79C275.23,-68.23 284.49,-68.68 293.37,-69.1"/>
<polygon fill="black" stroke="black" points="293.44,-72.61 303.59,-69.59 293.77,-65.62 293.44,-72.61"/>
</g>
<!-- PC&#45;&gt;F -->
<g id="edge5" class="edge">
<title>PC&#45;&gt;F</title>
<path fill="none" stroke="black" d="M238.02,-49.95C263.03,-43.04 292.65,-34.86 315.66,-28.51"/>
<polygon fill="black" stroke="black" points="316.7,-31.86 325.41,-25.82 314.84,-25.11 316.7,-31.86"/>
</g>
<!-- ABR -->
<g id="node5" class="node">
<title>ABR</title>
<ellipse fill="none" stroke="black" cx="481.72" cy="-18" rx="39.79" ry="18"/>
<text text-anchor="middle" x="481.72" y="-14.3" font-family="Times,serif" font-size="14.00">Aborted</text>
</g>
<!-- F&#45;&gt;ABR -->
<g id="edge4" class="edge">
<title>F&#45;&gt;ABR</title>
<path fill="none" stroke="black" d="M387.27,-18C400.78,-18 416.88,-18 431.87,-18"/>
<polygon fill="black" stroke="black" points="432.04,-21.5 442.04,-18 432.04,-14.5 432.04,-21.5"/>
</g>
</g>
</svg>
